<svg xmlns="http://www.w3.org/2000/svg" xmlns:xlink="http://www.w3.org/1999/xlink" width="344" zoomAndPan="magnify" viewBox="0 0 258 68.999997" height="92" preserveAspectRatio="xMidYMid meet" version="1.0"><defs><g/><clipPath id="f69f3a5835"><path d="M 1 16 L 55 16 L 55 68.894531 L 1 68.894531 Z M 1 16 " clip-rule="nonzero"/></clipPath></defs><g fill="#152039" fill-opacity="1"><g transform="translate(55.523511, 45.728489)"><g><path d="M 17.390625 -15.609375 L 10.703125 0 L 6.359375 0 L -0.3125 -15.609375 L 4.453125 -15.609375 L 8.703125 -5.4375 L 13.015625 -15.609375 Z M 17.390625 -15.609375 "/></g></g></g><g fill="#152039" fill-opacity="1"><g transform="translate(72.150757, 45.728489)"><g><path d="M 1.5625 -15.609375 L 5.96875 -15.609375 L 5.96875 0 L 1.5625 0 Z M 1.5625 -15.609375 "/></g></g></g><g fill="#152039" fill-opacity="1"><g transform="translate(79.260669, 45.728489)"><g><path d="M 1.5625 -15.609375 L 8.9375 -15.609375 C 10.644531 -15.609375 12.160156 -15.285156 13.484375 -14.640625 C 14.804688 -14.003906 15.832031 -13.097656 16.5625 -11.921875 C 17.289062 -10.753906 17.65625 -9.378906 17.65625 -7.796875 C 17.65625 -6.222656 17.289062 -4.847656 16.5625 -3.671875 C 15.832031 -2.503906 14.804688 -1.597656 13.484375 -0.953125 C 12.160156 -0.316406 10.644531 0 8.9375 0 L 1.5625 0 Z M 8.765625 -3.515625 C 10.097656 -3.515625 11.171875 -3.894531 11.984375 -4.65625 C 12.796875 -5.414062 13.203125 -6.460938 13.203125 -7.796875 C 13.203125 -9.140625 12.796875 -10.1875 11.984375 -10.9375 C 11.171875 -11.695312 10.097656 -12.078125 8.765625 -12.078125 L 5.96875 -12.078125 L 5.96875 -3.515625 Z M 8.765625 -3.515625 "/></g></g></g><g fill="#152039" fill-opacity="1"><g transform="translate(97.225242, 45.728489)"><g><path d="M 14.09375 -3.40625 L 14.09375 0 L 1.5625 0 L 1.5625 -15.609375 L 13.796875 -15.609375 L 13.796875 -12.203125 L 5.9375 -12.203125 L 5.9375 -9.5625 L 12.859375 -9.5625 L 12.859375 -6.265625 L 5.9375 -6.265625 L 5.9375 -3.40625 Z M 14.09375 -3.40625 "/></g></g></g><g fill="#152039" fill-opacity="1"><g transform="translate(111.757334, 45.728489)"><g><path d="M 9.4375 0.3125 C 7.78125 0.3125 6.296875 -0.0351562 4.984375 -0.734375 C 3.671875 -1.429688 2.640625 -2.394531 1.890625 -3.625 C 1.140625 -4.863281 0.765625 -6.253906 0.765625 -7.796875 C 0.765625 -9.347656 1.140625 -10.738281 1.890625 -11.96875 C 2.640625 -13.207031 3.671875 -14.175781 4.984375 -14.875 C 6.296875 -15.570312 7.78125 -15.921875 9.4375 -15.921875 C 11.082031 -15.921875 12.5625 -15.570312 13.875 -14.875 C 15.195312 -14.175781 16.234375 -13.207031 16.984375 -11.96875 C 17.734375 -10.738281 18.109375 -9.347656 18.109375 -7.796875 C 18.109375 -6.253906 17.734375 -4.863281 16.984375 -3.625 C 16.234375 -2.394531 15.195312 -1.429688 13.875 -0.734375 C 12.5625 -0.0351562 11.082031 0.3125 9.4375 0.3125 Z M 9.4375 -3.34375 C 10.21875 -3.34375 10.925781 -3.523438 11.5625 -3.890625 C 12.207031 -4.265625 12.710938 -4.789062 13.078125 -5.46875 C 13.453125 -6.144531 13.640625 -6.921875 13.640625 -7.796875 C 13.640625 -8.679688 13.453125 -9.460938 13.078125 -10.140625 C 12.710938 -10.816406 12.207031 -11.335938 11.5625 -11.703125 C 10.925781 -12.078125 10.21875 -12.265625 9.4375 -12.265625 C 8.644531 -12.265625 7.925781 -12.078125 7.28125 -11.703125 C 6.644531 -11.335938 6.140625 -10.816406 5.765625 -10.140625 C 5.398438 -9.460938 5.21875 -8.679688 5.21875 -7.796875 C 5.21875 -6.921875 5.398438 -6.144531 5.765625 -5.46875 C 6.140625 -4.789062 6.644531 -4.265625 7.28125 -3.890625 C 7.925781 -3.523438 8.644531 -3.34375 9.4375 -3.34375 Z M 9.4375 -3.34375 "/></g></g></g><g fill="#152039" fill-opacity="1"><g transform="translate(130.167687, 45.728489)"><g/></g></g><g fill="#152039" fill-opacity="1"><g transform="translate(136.207739, 45.728489)"><g><path d="M 12.015625 -8.140625 L 15.921875 -8.140625 L 15.921875 -1.671875 C 15.023438 -1.035156 14 -0.546875 12.84375 -0.203125 C 11.6875 0.140625 10.523438 0.3125 9.359375 0.3125 C 7.722656 0.3125 6.25 -0.03125 4.9375 -0.71875 C 3.632812 -1.414062 2.613281 -2.378906 1.875 -3.609375 C 1.132812 -4.847656 0.765625 -6.242188 0.765625 -7.796875 C 0.765625 -9.359375 1.132812 -10.753906 1.875 -11.984375 C 2.613281 -13.222656 3.644531 -14.1875 4.96875 -14.875 C 6.289062 -15.570312 7.785156 -15.921875 9.453125 -15.921875 C 10.910156 -15.921875 12.21875 -15.675781 13.375 -15.1875 C 14.539062 -14.695312 15.507812 -13.988281 16.28125 -13.0625 L 13.46875 -10.53125 C 12.414062 -11.6875 11.148438 -12.265625 9.671875 -12.265625 C 8.335938 -12.265625 7.257812 -11.859375 6.4375 -11.046875 C 5.625 -10.234375 5.21875 -9.148438 5.21875 -7.796875 C 5.21875 -6.941406 5.398438 -6.175781 5.765625 -5.5 C 6.140625 -4.820312 6.660156 -4.289062 7.328125 -3.90625 C 8.003906 -3.53125 8.769531 -3.34375 9.625 -3.34375 C 10.476562 -3.34375 11.273438 -3.515625 12.015625 -3.859375 Z M 12.015625 -8.140625 "/></g></g></g><g fill="#152039" fill-opacity="1"><g transform="translate(152.924134, 45.728489)"><g><path d="M 12.015625 -3.03125 L 5.421875 -3.03125 L 4.1875 0 L -0.3125 0 L 6.578125 -15.609375 L 10.921875 -15.609375 L 17.84375 0 L 13.25 0 Z M 10.71875 -6.28125 L 8.71875 -11.28125 L 6.71875 -6.28125 Z M 10.71875 -6.28125 "/></g></g></g><g fill="#152039" fill-opacity="1"><g transform="translate(169.997151, 45.728489)"><g><path d="M 1.5625 -15.609375 L 5.96875 -15.609375 L 5.96875 -3.5 L 13.421875 -3.5 L 13.421875 0 L 1.5625 0 Z M 1.5625 -15.609375 "/></g></g></g><g fill="#152039" fill-opacity="1"><g transform="translate(183.147335, 45.728489)"><g><path d="M 1.5625 -15.609375 L 5.96875 -15.609375 L 5.96875 -3.5 L 13.421875 -3.5 L 13.421875 0 L 1.5625 0 Z M 1.5625 -15.609375 "/></g></g></g><g fill="#152039" fill-opacity="1"><g transform="translate(196.297519, 45.728489)"><g><path d="M 14.09375 -3.40625 L 14.09375 0 L 1.5625 0 L 1.5625 -15.609375 L 13.796875 -15.609375 L 13.796875 -12.203125 L 5.9375 -12.203125 L 5.9375 -9.5625 L 12.859375 -9.5625 L 12.859375 -6.265625 L 5.9375 -6.265625 L 5.9375 -3.40625 Z M 14.09375 -3.40625 "/></g></g></g><g fill="#152039" fill-opacity="1"><g transform="translate(210.829613, 45.728489)"><g><path d="M 8.390625 -4.140625 L 5.96875 -4.140625 L 5.96875 0 L 1.5625 0 L 1.5625 -15.609375 L 8.703125 -15.609375 C 10.109375 -15.609375 11.332031 -15.375 12.375 -14.90625 C 13.414062 -14.4375 14.21875 -13.765625 14.78125 -12.890625 C 15.34375 -12.023438 15.625 -11.003906 15.625 -9.828125 C 15.625 -8.703125 15.359375 -7.71875 14.828125 -6.875 C 14.304688 -6.039062 13.554688 -5.382812 12.578125 -4.90625 L 15.9375 0 L 11.21875 0 Z M 11.171875 -9.828125 C 11.171875 -10.554688 10.9375 -11.117188 10.46875 -11.515625 C 10.007812 -11.921875 9.328125 -12.125 8.421875 -12.125 L 5.96875 -12.125 L 5.96875 -7.5625 L 8.421875 -7.5625 C 9.328125 -7.5625 10.007812 -7.753906 10.46875 -8.140625 C 10.9375 -8.535156 11.171875 -9.097656 11.171875 -9.828125 Z M 11.171875 -9.828125 "/></g></g></g><g fill="#152039" fill-opacity="1"><g transform="translate(226.877351, 45.728489)"><g><path d="M 9.921875 -5.59375 L 9.921875 0 L 5.5 0 L 5.5 -5.65625 L -0.453125 -15.609375 L 4.21875 -15.609375 L 7.921875 -9.40625 L 11.609375 -15.609375 L 15.890625 -15.609375 Z M 9.921875 -5.59375 "/></g></g></g><g clip-path="url(#f69f3a5835)"><path fill="#1082cf" d="M 30.511719 68.894531 C 29.582031 68.894531 28.644531 68.773438 27.695312 68.539062 C 24.835938 67.820312 22.050781 66.222656 19.296875 64.164062 C 21.535156 64.414062 23.84375 64.496094 26.144531 64.496094 C 27.246094 64.496094 28.347656 64.476562 29.4375 64.449219 C 33.976562 64.226562 38.335938 63.839844 42.035156 62.664062 C 41.996094 62.703125 41.960938 62.746094 41.925781 62.785156 C 38.152344 66.839844 34.390625 68.894531 30.511719 68.894531 M 2.84375 46.210938 C 2.597656 45.714844 2.371094 45.210938 2.167969 44.703125 C 0.0078125 39.351562 1.144531 34.105469 5.820312 29.078125 C 6.753906 28.070312 7.832031 27.074219 9.039062 26.101562 C 5.222656 32.917969 3.132812 40.242188 2.84375 46.210938 M 51.964844 45.308594 C 51.464844 38.765625 49.089844 30.523438 44.730469 23.269531 C 43.019531 20.433594 41.117188 18.019531 39.082031 16.117188 C 43.394531 16.492188 47.03125 17.886719 49.570312 20.308594 C 54.246094 24.578125 55.382812 32.175781 53.222656 41.003906 C 52.867188 42.464844 52.445312 43.902344 51.964844 45.308594 " fill-opacity="1" fill-rule="nonzero"/></g><path fill="#e91348" d="M 19.296875 64.164062 C 16.429688 63.84375 13.683594 63.25 11.226562 62.207031 C 5.933594 59.957031 3.054688 55.4375 2.828125 48.558594 C 2.800781 47.804688 2.804688 47.019531 2.84375 46.210938 C 5.195312 50.96875 9.335938 55.300781 13.46875 59.246094 C 15.40625 61.015625 17.34375 62.707031 19.296875 64.164062 M 42.035156 62.664062 C 45.808594 58.539062 49.574219 52.332031 51.964844 45.308594 C 52.003906 45.785156 52.027344 46.25 52.046875 46.710938 C 52.273438 53.589844 50.347656 58.289062 46.027344 60.898438 C 44.816406 61.628906 43.476562 62.207031 42.035156 62.664062 M 9.039062 26.101562 C 9.324219 25.589844 9.621094 25.082031 9.925781 24.578125 C 14.855469 16.4375 21.308594 11.402344 27.597656 11.234375 C 27.796875 11.226562 28 11.21875 28.199219 11.21875 C 31.996094 11.21875 35.71875 12.972656 39.082031 16.117188 C 38.296875 16.050781 37.492188 16.015625 36.664062 16.015625 C 33.867188 16.015625 30.847656 16.402344 27.695312 17.171875 C 20.367188 18.960938 13.738281 22.316406 9.039062 26.101562 " fill-opacity="1" fill-rule="nonzero"/><path fill="#1b66b9" d="M 26.144531 64.496094 C 23.84375 64.496094 21.535156 64.414062 19.296875 64.164062 C 17.34375 62.707031 15.40625 61.015625 13.46875 59.246094 C 9.335938 55.300781 5.195312 50.96875 2.84375 46.210938 C 3.132812 40.242188 5.222656 32.917969 9.039062 26.101562 C 13.738281 22.316406 20.367188 18.960938 27.695312 17.171875 C 30.847656 16.402344 33.867188 16.015625 36.664062 16.015625 C 37.492188 16.015625 38.296875 16.050781 39.082031 16.117188 C 41.117188 18.019531 43.019531 20.433594 44.730469 23.269531 C 49.089844 30.523438 51.464844 38.765625 51.964844 45.308594 C 49.574219 52.332031 45.808594 58.539062 42.035156 62.664062 C 38.335938 63.839844 33.976562 64.226562 29.4375 64.449219 C 28.347656 64.476562 27.246094 64.496094 26.144531 64.496094 " fill-opacity="1" fill-rule="nonzero"/><path fill="#1082cf" d="M 40.011719 10.175781 C 37.214844 10.175781 34.953125 7.898438 34.953125 5.085938 C 34.953125 2.277344 37.214844 0 40.011719 0 C 42.804688 0 45.066406 2.277344 45.066406 5.085938 C 45.066406 7.898438 42.804688 10.175781 40.011719 10.175781 " fill-opacity="1" fill-rule="nonzero"/><path fill="#e91348" d="M 50.125 17.894531 C 48.730469 17.894531 47.597656 16.757812 47.597656 15.351562 C 47.597656 13.945312 48.730469 12.808594 50.125 12.808594 C 51.523438 12.808594 52.65625 13.945312 52.65625 15.351562 C 52.65625 16.757812 51.523438 17.894531 50.125 17.894531 " fill-opacity="1" fill-rule="nonzero"/><path fill="#ffffff" d="M 43.164062 36.574219 L 21.75 24.136719 C 19.210938 22.660156 16.03125 24.503906 16.03125 27.457031 L 16.03125 52.332031 C 16.03125 55.28125 19.210938 57.125 21.75 55.652344 L 43.164062 43.214844 C 45.703125 41.738281 45.703125 38.046875 43.164062 36.574219 " fill-opacity="1" fill-rule="nonzero"/></svg>